<svg xmlns="http://www.w3.org/2000/svg" width="559.336" height="265.853" viewBox="0 0 559.336 265.853">
  <g id="Grupo_2" data-name="Grupo 2" transform="translate(-878.999 -160.074)">
    <path id="Caminho_3" data-name="Caminho 3" d="M-169.71-27.181q-9.85,0-16.347-4.1a24.732,24.732,0,0,1-9.684-11.629,45.229,45.229,0,0,1-3.187-17.713,45.155,45.155,0,0,1,3.187-17.754,24.76,24.76,0,0,1,9.684-11.588q6.5-4.1,16.347-4.1,9.932,0,16.388,4.1a24.839,24.839,0,0,1,9.643,11.588,45.155,45.155,0,0,1,3.187,17.754,45.229,45.229,0,0,1-3.187,17.713,24.811,24.811,0,0,1-9.643,11.629Q-159.778-27.181-169.71-27.181Zm0-7.449q10.1,0,14.94-6.828t4.842-19.161q0-12.333-4.842-19.161t-14.94-6.828q-10.1,0-14.94,6.828t-4.842,19.161q0,12.333,4.842,19.161T-169.71-34.631Zm13.988,18.706-10.429-13.409,7.532-3.973,13.16,16.885v.5ZM-114.006-27.1q-8.691,0-12.622-5.38t-3.932-13.657V-78h8.939v29.963q0,6.456,2.318,9.891t7.2,3.435a10.914,10.914,0,0,0,9.477-4.759,19.973,19.973,0,0,0,3.352-11.795V-78h8.939V-28.34H-98.28v-7.449h-1.986a11.6,11.6,0,0,1-4.842,6.415A16.08,16.08,0,0,1-114.006-27.1ZM-76.1-28.34V-78h8.939V-28.34Zm4.47-56.614a5.339,5.339,0,0,1-4.014-1.49,5.456,5.456,0,0,1-1.448-3.973,5.456,5.456,0,0,1,1.448-3.973,5.339,5.339,0,0,1,4.014-1.49,5.312,5.312,0,0,1,4.056,1.49,5.549,5.549,0,0,1,1.407,3.973,5.549,5.549,0,0,1-1.407,3.973A5.312,5.312,0,0,1-71.628-84.954ZM-34.713-27.1q-10.76,0-16.181-7.16t-5.421-18.913q0-11.919,5.5-19t16.1-7.077q8.691,0,14.029,4.842t6.5,13.781h-8.691a14.594,14.594,0,0,0-3.642-8.318,10.489,10.489,0,0,0-7.946-3.021q-6.539,0-9.643,5.049t-3.1,13.74q0,8.691,3.1,13.74t9.643,5.049A10.489,10.489,0,0,0-26.519-37.4a14.594,14.594,0,0,0,3.642-8.318h8.691Q-15.51-36.7-20.807-31.9T-34.713-27.1Zm30.79-1.242V-94.556H4.851v36.832H8.824L25.047-78h9.932v.5L16.108-54.661,36.966-28.837v.5H26.04L8.824-50.274H4.851V-28.34ZM47.146-11.786v-.5q2.4-3.642,5.049-8.567T57-30.906l-17.878-46.6V-78h8.939l9.27,24.831q.828,2.152,1.614,4.511t1.614,5.752h1.986q.828-3.394,1.614-5.752t1.614-4.511L75.04-78h8.277v.5L66.266-32.81q-2.483,6.539-5.09,12.084a83.294,83.294,0,0,1-4.759,8.939Z" transform="translate(1354.928 329.19)" fill="#f7f7f8"/>
    <path id="Caminho_4" data-name="Caminho 4" d="M-233.778-29.95h4.044L-225.87-18.6l3.894-11.353h4.059V-7.664h-2.8v-19.7L-224.7-15.617h-2.292l-4-11.742v19.7h-2.786Zm27.154,2.591-3.19,11.443h6.38Zm-1.827-2.666h3.669l6.845,22.361h-3.13l-1.648-5.826h-7.833l-1.618,5.826h-3.13Zm13.12,0h3.04v9.945l9.451-9.945h3.55l-8.7,9.136,8.956,13.225h-3.654l-7.294-11.2-2.307,2.456v8.747h-3.04Zm19.366,0h13.27v2.546H-172.94v6.021h9.8v2.546h-9.8v8.7h10.529v2.546h-13.554Zm34.688,0h17.059v2.546h-6.994V-7.664h-3.04V-27.479h-7.024Zm20.714,0h13.27v2.546h-10.244v6.021h9.8v2.546h-9.8v8.7h10.529v2.546h-13.554Zm30.674.764v3.07a11.97,11.97,0,0,0-2.763-1.333,9,9,0,0,0-2.793-.449,5.266,5.266,0,0,0-3.385,1,3.264,3.264,0,0,0-1.243,2.688,2.98,2.98,0,0,0,.816,2.262,6.827,6.827,0,0,0,3.048,1.3l1.588.359a8.763,8.763,0,0,1,4.583,2.307A6.106,6.106,0,0,1-88.6-13.775,6.028,6.028,0,0,1-90.58-8.907,8.667,8.667,0,0,1-96.331-7.23a15.184,15.184,0,0,1-3.16-.337,17.714,17.714,0,0,1-3.19-1.011V-11.8a14.931,14.931,0,0,0,3.258,1.6,9.769,9.769,0,0,0,3.093.509,5.541,5.541,0,0,0,3.565-1.026,3.477,3.477,0,0,0,1.273-2.868,3.486,3.486,0,0,0-.876-2.561A6.18,6.18,0,0,0-95.417-17.5l-1.618-.374a9.109,9.109,0,0,1-4.523-2.127,5.192,5.192,0,0,1-1.408-3.819,6.13,6.13,0,0,1,2.014-4.8,7.723,7.723,0,0,1,5.354-1.8,13.493,13.493,0,0,1,2.711.292A20.443,20.443,0,0,1-89.891-29.261Zm4.014-.764h17.059v2.546h-6.994V-7.664h-3.04V-27.479h-7.024Zm20.774,0h12.416v2.546h-4.688V-10.21h4.688v2.546H-65.1V-10.21h4.688V-27.479H-65.1Zm15.741.075h4.134L-36.482-11.6V-29.95h3.22V-7.664H-37.4l-8.747-18.347V-7.664h-3.22ZM-14.645-9.506a8.349,8.349,0,0,1-2.733,1.7,9.194,9.194,0,0,1-3.288.577,7.9,7.9,0,0,1-6.62-3.048q-2.366-3.048-2.366-8.545t2.4-8.545a7.986,7.986,0,0,1,6.665-3.063,9.1,9.1,0,0,1,2.7.4,9.364,9.364,0,0,1,2.486,1.206v3.1a8.532,8.532,0,0,0-2.486-1.7,6.76,6.76,0,0,0-2.7-.547,4.918,4.918,0,0,0-4.426,2.284q-1.475,2.284-1.475,6.867,0,4.658,1.43,6.9a4.852,4.852,0,0,0,4.4,2.239,6.013,6.013,0,0,0,1.76-.232,4.071,4.071,0,0,0,1.37-.726v-6.006h-3.25v-2.486h6.141ZM9.244-30.025H22.409v2.546H12.285v5.991h9.181v2.546H12.285V-7.664H9.244Zm24.2,2.666-3.19,11.443h6.38ZM31.62-30.025H35.29L42.134-7.664H39L37.357-13.49H29.523L27.906-7.664h-3.13Zm26.225.764v3.07a11.97,11.97,0,0,0-2.763-1.333,9,9,0,0,0-2.793-.449,5.266,5.266,0,0,0-3.385,1,3.264,3.264,0,0,0-1.243,2.688,2.98,2.98,0,0,0,.816,2.262,6.827,6.827,0,0,0,3.048,1.3l1.588.359A8.763,8.763,0,0,1,57.7-18.058a6.106,6.106,0,0,1,1.438,4.284,6.028,6.028,0,0,1-1.977,4.868A8.667,8.667,0,0,1,51.405-7.23a15.184,15.184,0,0,1-3.16-.337,17.714,17.714,0,0,1-3.19-1.011V-11.8a14.931,14.931,0,0,0,3.258,1.6,9.769,9.769,0,0,0,3.093.509,5.541,5.541,0,0,0,3.565-1.026,3.477,3.477,0,0,0,1.273-2.868,3.486,3.486,0,0,0-.876-2.561A6.18,6.18,0,0,0,52.319-17.5L50.7-17.879a9.109,9.109,0,0,1-4.523-2.127,5.192,5.192,0,0,1-1.408-3.819,6.13,6.13,0,0,1,2.014-4.8,7.723,7.723,0,0,1,5.354-1.8,13.493,13.493,0,0,1,2.711.292A20.444,20.444,0,0,1,57.846-29.261Zm4.014-.764H78.919v2.546H71.924V-7.664h-3.04V-27.479H61.86Zm20.714,0h13.27v2.546H85.6v6.021h9.8v2.546H85.6v8.7H96.128v2.546H82.573Zm26.9,11.8a4.227,4.227,0,0,1,1.992,1.131,13.9,13.9,0,0,1,2.052,3.317l3.04,6.111h-3.25l-2.666-5.646a8.9,8.9,0,0,0-2.074-3.108,3.881,3.881,0,0,0-2.4-.7h-2.891v9.451h-3.04V-30.025h6.231a8.5,8.5,0,0,1,5.646,1.662,5.95,5.95,0,0,1,1.962,4.808,5.347,5.347,0,0,1-1.206,3.617A5.282,5.282,0,0,1,109.472-18.223Zm-6.2-9.316V-19.6h3.31a4.659,4.659,0,0,0,3.235-.974,3.849,3.849,0,0,0,1.063-2.98,3.79,3.79,0,0,0-1.131-2.958,4.734,4.734,0,0,0-3.288-1.026Z" transform="translate(1321.778 380.225)" fill="#8f6cef"/>
    <path id="path0" d="M120.134,213.97C79.618,199.1,49.585,178.923,28.877,152.662c-3.821-4.849-11.556-15.912-11.556-16.53a13.007,13.007,0,0,0-1.131-2.019C6.436,118.66-2.711,88.3.745,82.838,5.5,75.32,28.8,70.722,44.367,74.23c12.945,2.918,12.492,2.858,22.349,2.886,25.4.071,50-14.477,69.479-41.1,1.081-1.474,2.028-2.761,2.107-2.86.511-.631,3.721,3.871,3.532,4.954-1.047,6.025-14,30-20.086,37.167-2.719,3.206-2.755,3.543-.206,1.974,3.538-2.176,9.145-8.284,11.606-12.647,1.764-3.124,1.744-3.113,6.709-3.948,8.95-1.506,10.11.285,5.22,8.057-14.348,22.815-10.207,50.189,9.351,61.8,3.886,2.309,5.195,2.227,1.993-.122-21.658-15.9-20.708-47.284,2.116-69.781,4.39-4.33,4.4-3.609-.086-8.984-4.748-5.69-13.655-16.44-17.2-20.753-1.513-1.845-5.429-6.572-8.7-10.505C113.605-2.421,115.139-.168,118.866.265A34.457,34.457,0,0,1,136,7.425c3.463,2.635,3.967,3.085,13.471,12.084,23.3,22.059,32.923,29.226,45.018,33.515,2.474.875,3.607,1.517,3.843,2.176.185.513,1.073,3.21,1.974,5.993C203.875,72.2,208.883,81,217.286,91c13.007,15.483,16,35.991,7.666,52.539l-1.566,3.109,1.729,1.68c9.121,8.866,9.087,24.5-.082,36.6-11.413,15.056-24.179,7.3-23.439-14.245.109-3.135.18-5.7.159-5.7s-1.481.59-3.244,1.309c-17.187,7-34.652,4.635-55.843-7.572-5.83-3.358-10.651-6.574-23.426-15.629-19.858-14.076-27.7-16.633-40.006-13.033-8.5,2.487-25.589,13.47-22.574,14.511.369.129,2.721.657,5.225,1.174,32.106,6.634,63.984,28.675,73.463,50.79,2.558,5.963-2.871,7.439-6.778,1.841-14.541-20.834-38.485-37.345-61.63-42.495-9.537-2.124-15.751-2.354-8.593-.32a122.638,122.638,0,0,1,39.341,19.337c3.195,2.328,12.8,10.8,13.7,12.082.326.466,1.579,1.895,2.783,3.171,6.915,7.347,15.8,20.693,15.8,23.74,0,3.015-1.807,3.03-9.834.084M33.289,121.347" transform="translate(1156.338 369.817) rotate(166)" fill="#8f6cef" fill-rule="evenodd"/>
  </g>
</svg>
